<svg width="16" height="16" viewBox="0 0 16 16" fill="none" xmlns="http://www.w3.org/2000/svg">
<path d="M13.9932 16H2.00489C1.45334 16 0.982447 15.8047 0.592202 15.4141C0.201958 15.0234 0.00683594 14.5521 0.00683594 14V2C0.00683594 1.44792 0.201958 0.976562 0.592202 0.585938C0.982447 0.195312 1.45334 0 2.00489 0H13.9932C14.5447 0 15.0156 0.195312 15.4059 0.585938C15.7961 0.976562 15.9912 1.44792 15.9912 2V14C15.9912 14.5521 15.7961 15.0234 15.4059 15.4141C15.0156 15.8047 14.5447 16 13.9932 16ZM5.00196 11.5C5.00196 11.3646 4.95253 11.2474 4.85367 11.1484C4.75481 11.0495 4.63773 11 4.50245 11H3.50342C3.36814 11 3.25107 11.0495 3.1522 11.1484C3.05334 11.2474 3.00391 11.3646 3.00391 11.5V13.5C3.00391 13.6354 3.05334 13.7526 3.1522 13.8516C3.25107 13.9505 3.36814 14 3.50342 14H4.50245C4.63773 14 4.75481 13.9505 4.85367 13.8516C4.95253 13.7526 5.00196 13.6354 5.00196 13.5V11.5ZM8.99806 7.5C8.99806 7.36458 8.94863 7.2474 8.84977 7.14844C8.75091 7.04948 8.63384 7 8.49855 7H7.49953C7.36424 7 7.24717 7.04948 7.14831 7.14844C7.04944 7.2474 7.00001 7.36458 7.00001 7.5V13.5C7.00001 13.6354 7.04944 13.7526 7.14831 13.8516C7.24717 13.9505 7.36424 14 7.49953 14H8.49855C8.63384 14 8.75091 13.9505 8.84977 13.8516C8.94863 13.7526 8.99806 13.6354 8.99806 13.5V7.5ZM12.9942 2.5C12.9942 2.36458 12.9447 2.2474 12.8459 2.14844C12.747 2.04948 12.6299 2 12.4947 2H11.4956C11.3603 2 11.2433 2.04948 11.1444 2.14844C11.0455 2.2474 10.9961 2.36458 10.9961 2.5V13.5C10.9961 13.6354 11.0455 13.7526 11.1444 13.8516C11.2433 13.9505 11.3603 14 11.4956 14H12.4947C12.6299 14 12.747 13.9505 12.8459 13.8516C12.9447 13.7526 12.9942 13.6354 12.9942 13.5V2.5Z" fill="#B1B6D1"/>
</svg>
