<svg width="17" height="16" viewBox="0 0 17 16" fill="none" xmlns="http://www.w3.org/2000/svg">
<path d="M6.16602 7.28571L8.72852 5.42857L11.291 7.28571L10.3178 10.2857H7.14816L6.16602 7.28571ZM8.72852 0C9.81185 0 10.8476 0.21131 11.8357 0.633929C12.8238 1.05655 13.6749 1.625 14.3892 2.33929C15.1035 3.05357 15.672 3.90476 16.0946 4.89286C16.5172 5.88095 16.7285 6.91667 16.7285 8C16.7285 9.08333 16.5172 10.119 16.0946 11.1071C15.672 12.0952 15.1035 12.9464 14.3892 13.6607C13.6749 14.375 12.8238 14.9435 11.8357 15.3661C10.8476 15.7887 9.81185 16 8.72852 16C7.64518 16 6.60947 15.7887 5.62137 15.3661C4.63328 14.9435 3.78209 14.375 3.0678 13.6607C2.35352 12.9464 1.78506 12.0952 1.36244 11.1071C0.939825 10.119 0.728516 9.08333 0.728516 8C0.728516 6.91667 0.939825 5.88095 1.36244 4.89286C1.78506 3.90476 2.35352 3.05357 3.0678 2.33929C3.78209 1.625 4.63328 1.05655 5.62137 0.633929C6.60947 0.21131 7.64518 0 8.72852 0ZM14.2553 12.0536C15.1422 10.8452 15.5857 9.49405 15.5857 8V7.97321L14.6749 8.76786L12.5321 6.76786L13.0946 3.88393L14.291 3.99107C13.3982 2.76488 12.2404 1.9256 10.8178 1.47321L11.291 2.58036L8.72852 4L6.16602 2.58036L6.63923 1.47321C5.21661 1.9256 4.05887 2.76488 3.16602 3.99107L4.37137 3.88393L4.92494 6.76786L2.78209 8.76786L1.87137 7.97321V8C1.87137 9.49405 2.31483 10.8452 3.20173 12.0536L3.46959 10.875L6.3803 11.2321L7.62137 13.8929L6.58566 14.5089C7.28209 14.7411 7.99637 14.8571 8.72852 14.8571C9.46066 14.8571 10.1749 14.7411 10.8714 14.5089L9.83566 13.8929L11.0767 11.2321L13.9874 10.875L14.2553 12.0536Z" fill="#B1B6D1"/>
</svg>
