<svg width="15" height="14" viewBox="0 0 15 14" fill="none" xmlns="http://www.w3.org/2000/svg">
<path d="M14.2497 1.43857C13.0177 1.03467 9.82847 -0.0104214 9.82847 7.85418e-05C9.82847 0.55703 9.60723 1.09117 9.2134 1.48499C8.81958 1.87882 8.28544 2.10007 7.72849 2.10007C7.17153 2.10007 6.63739 1.87882 6.24357 1.48499C5.84975 1.09117 5.6285 0.55703 5.6285 7.85418e-05C5.6285 -0.0104214 2.43932 1.03467 1.20662 1.43857C1.06696 1.48435 0.945424 1.57326 0.859509 1.69251C0.773595 1.81176 0.727733 1.95519 0.728526 2.10217V4.70335C0.728555 4.80968 0.752806 4.9146 0.799439 5.01016C0.846072 5.10572 0.91386 5.18939 0.99766 5.25484C1.08146 5.32029 1.17907 5.36578 1.28307 5.38788C1.38708 5.40997 1.49475 5.40808 1.59792 5.38235L3.52851 4.90005V13.3C3.52851 13.4857 3.60226 13.6637 3.73353 13.795C3.86481 13.9263 4.04286 14 4.22851 14H11.2285C11.4141 14 11.5922 13.9263 11.7234 13.795C11.8547 13.6637 11.9285 13.4857 11.9285 13.3V4.90005L13.8591 5.38235C13.9622 5.40808 14.0699 5.40997 14.1739 5.38788C14.2779 5.36578 14.3755 5.32029 14.4593 5.25484C14.5431 5.18939 14.6109 5.10572 14.6575 5.01016C14.7042 4.9146 14.7284 4.80968 14.7284 4.70335V2.10217C14.7292 1.95511 14.6832 1.81161 14.5972 1.69235C14.5111 1.57309 14.3894 1.48423 14.2497 1.43857Z" fill="#B1B6D1"/>
</svg>
