<svg width="12" height="16" viewBox="0 0 12 16" fill="none" xmlns="http://www.w3.org/2000/svg">
<path d="M10.331 15.3999L10.3326 10.5987C9.1978 11.51 7.78534 12.0056 6.32994 12.0031C4.87518 12.0055 3.46336 11.5102 2.32892 10.5995L2.33132 15.4007C2.33158 15.5105 2.36193 15.618 2.41906 15.7117C2.47619 15.8054 2.55791 15.8817 2.65535 15.9321C2.75278 15.9826 2.86219 16.0054 2.97168 15.9981C3.08118 15.9907 3.18656 15.9535 3.27636 15.8904L6.33074 13.7403L9.38592 15.8904C9.47579 15.9538 9.58132 15.9912 9.69101 15.9986C9.80069 16.0061 9.91031 15.9832 10.0079 15.9326C10.1055 15.882 10.1873 15.8056 10.2444 15.7116C10.3015 15.6177 10.3309 15.5099 10.331 15.3999ZM11.9314 5.60142C11.9314 4.86584 11.7865 4.13745 11.505 3.45785C11.2235 2.77826 10.8109 2.16076 10.2907 1.64062C9.7706 1.12048 9.15311 0.707881 8.47351 0.426383C7.79392 0.144885 7.06553 0 6.32994 0C5.59435 0 4.86596 0.144885 4.18637 0.426383C3.50677 0.707881 2.88928 1.12048 2.36913 1.64062C1.84899 2.16076 1.4364 2.77826 1.1549 3.45785C0.873401 4.13745 0.728516 4.86584 0.728516 5.60142C0.728516 7.08701 1.31866 8.51176 2.36913 9.56223C3.41961 10.6127 4.84435 11.2028 6.32994 11.2028C7.81553 11.2028 9.24027 10.6127 10.2907 9.56223C11.3412 8.51176 11.9314 7.08701 11.9314 5.60142ZM6.51319 2.91434L7.24297 4.39712L8.87859 4.63318C9.04663 4.65718 9.11305 4.86364 8.99222 4.98127L7.80872 6.13356L8.08879 7.76277C8.09526 7.80031 8.09109 7.83891 8.07676 7.87421C8.06243 7.9095 8.0385 7.94008 8.00769 7.96248C7.97688 7.98488 7.94042 7.99821 7.90242 8.00095C7.86443 8.0037 7.82643 7.99576 7.79271 7.97803L6.32994 7.20823L4.86797 7.97803C4.83426 7.99576 4.79625 8.0037 4.75826 8.00095C4.72026 7.99821 4.6838 7.98488 4.65299 7.96248C4.62218 7.94008 4.59825 7.9095 4.58392 7.87421C4.56959 7.83891 4.56542 7.80031 4.57189 7.76277L4.85196 6.13436L3.66766 4.98207C3.64014 4.95549 3.62064 4.92171 3.6114 4.88458C3.60216 4.84745 3.60354 4.80847 3.61539 4.77209C3.62724 4.73571 3.64907 4.7034 3.67841 4.67883C3.70775 4.65427 3.7434 4.63845 3.78129 4.63318L5.41691 4.39712L6.14669 2.91434C6.16349 2.88006 6.18956 2.85117 6.22196 2.83097C6.25435 2.81077 6.29176 2.80005 6.32994 2.80005C6.36812 2.80005 6.40553 2.81077 6.43792 2.83097C6.47032 2.85117 6.49639 2.88006 6.51319 2.91434Z" fill="#B1B6D1"/>
</svg>
